# xmcd
#
# Track frame offsets: 
#        150
#        12625
#        23887
#        40050
#        57550
#        76760
#        91200
#        102525
#        118675
#        126862
#        144275
#        160050
#        175562
#        193437
#        207825
#        226412
#        241425
#
# Disc length: 3409 seconds
#
# Revision: 3
# Processed by: cddbd v1.5.2PL0 Copyright (c) Steve Scherf et al.
# Submitted via: ExactAudioCopyFreeDBPlugin 1.0
#
DISCID=e40d4f11
DTITLE=Tom Waits - Frank's Wild Years
DYEAR=1987
DGENRE=Jazz/Blues/Folk
TTITLE0=Hang On St. Christopher
TTITLE1=Straight to the Top (Rhumba)
TTITLE2=Blow Wind Blow
TTITLE3=Temptation
TTITLE4=Innocent When You Dream (Barroom)
TTITLE5=I'll Be Gone
TTITLE6=Yesterday Is Here
TTITLE7=Please Wake Me Up
TTITLE8=Frank's Theme
TTITLE9=More Than Rain
TTITLE10=Way Down in the Hole
TTITLE11=Straight to the Top (Vegas)
TTITLE12=I'll Take New York
TTITLE13=Telephone Call from Istanbul
TTITLE14=Cold Cold Ground
TTITLE15=Train Song
TTITLE16=Innocent When You Dream (78)
EXTD=YEAR: 1987
EXTT0=
EXTT1=
EXTT2=
EXTT3=
EXTT4=
EXTT5=
EXTT6=
EXTT7=
EXTT8=
EXTT9=
EXTT10=
EXTT11=
EXTT12=
EXTT13=
EXTT14=
EXTT15=
EXTT16=
PLAYORDER=
